<svg width="76" height="76" viewBox="0 0 76 76" fill="none" xmlns="http://www.w3.org/2000/svg">
<g clip-path="url(#clip0_63_80)">
<path d="M71 0H5C2.23858 0 0 2.23858 0 5V71C0 73.7614 2.23858 76 5 76H71C73.7614 76 76 73.7614 76 71V5C76 2.23858 73.7614 0 71 0Z" fill="white"/>
<g clip-path="url(#clip1_63_80)">
<path d="M40.9823 14C39.9362 19.6093 38.89 25.2186 38.1391 28.3173C37.3882 31.4159 36.9325 32.0038 33.9927 34.7746C31.0529 37.5454 25.6289 42.499 22.77 45.1816C19.911 47.8642 19.617 48.2757 19.3564 48.702C19.0958 49.1283 18.8685 49.5692 19.089 50.5467C19.3095 51.5242 19.9777 53.0382 20.4662 54.2288C20.9546 55.4195 21.2633 56.2867 21.4324 56.9923C21.6014 57.6979 21.6308 58.2417 21.6382 58.859C21.6455 59.4764 21.6308 60.1673 21.6161 60.8581M39.5196 30.4751C36.6974 30.4604 33.8751 30.4457 31.979 30.4384C30.0828 30.431 29.1126 30.431 28.3262 30.4751C27.5398 30.5192 26.9372 30.6074 26.5183 30.7471C26.0993 30.8867 25.8641 31.0778 24.8499 32.3272C23.8356 33.5766 22.0424 35.8844 21.1458 37.0824C20.2491 38.2803 20.2491 38.3685 20.8224 39.7061C21.3956 41.0437 22.5421 43.6308 23.6886 46.2178M26.1169 30.9469C27.2184 34.2439 28.3198 37.541 28.9 39.3365C29.4801 41.132 29.5389 41.4259 29.708 41.5949C29.877 41.764 30.1562 41.8081 31.4939 41.5435C32.8315 41.2789 35.2274 40.7057 36.5356 40.4117C37.8439 40.1177 38.0643 40.103 38.9683 40.6762C39.8723 41.2495 41.4598 42.4108 42.6431 43.2486C43.8264 44.0865 44.6054 44.6009 45.3845 45.1154M38.373 55.4342C37.6234 53.1264 36.8737 50.8187 36.4254 49.4884C35.9771 48.1581 35.8301 47.8054 35.2127 47.2321C34.5954 46.6588 33.5076 45.8651 32.4199 45.0713M57.4671 32.4154C54.8801 35.4581 52.293 38.5008 50.9848 40.103C49.6766 41.7052 49.6472 41.8669 49.5957 42.4695C49.5443 43.0722 49.4708 44.1159 49.412 44.6597C49.3532 45.2036 49.3092 45.2477 48.6036 45.7842C47.8981 46.3207 46.531 47.3497 45.8181 47.8935C45.1052 48.4374 45.0464 48.4962 44.6862 49.7603C44.3261 51.0244 43.6647 53.4939 43.3339 54.7286C43.0032 55.9633 43.0032 55.9633 42.6798 56.294C42.3565 56.6248 41.7097 57.2862 41.2393 57.7419C40.769 58.1976 40.475 58.4475 40.1736 58.7341C39.8723 59.0208 39.5637 59.3441 39.3799 59.5719C39.1962 59.7998 39.1374 59.9321 39.0786 60.0644M27.1282 19.7392C29.1365 19.7392 30.7645 21.3672 30.7645 23.3755C30.7645 25.3838 29.1365 27.0118 27.1282 27.0118C25.1199 27.0118 23.4919 25.3838 23.4919 23.3755C23.4919 21.3672 25.1199 19.7392 27.1282 19.7392Z" stroke="#8081BD" stroke-width="3" stroke-miterlimit="22.9256" stroke-linecap="round" stroke-linejoin="round"/>
</g>
</g>
<defs>
<clipPath id="clip0_63_80">
<rect width="76" height="76" fill="white"/>
</clipPath>
<clipPath id="clip1_63_80">
<rect width="42" height="51" fill="white" transform="translate(17 12)"/>
</clipPath>
</defs>
</svg>
