<svg width="76" height="76" viewBox="0 0 76 76" fill="none" xmlns="http://www.w3.org/2000/svg">
<g clip-path="url(#clip0_57_40)">
<path d="M71 0H5C2.23858 0 0 2.23858 0 5V71C0 73.7614 2.23858 76 5 76H71C73.7614 76 76 73.7614 76 71V5C76 2.23858 73.7614 0 71 0Z" fill="white"/>
<g clip-path="url(#clip1_57_40)">
<path d="M37.7997 29.2734C37.153 29.7144 36.5062 30.1554 35.6537 31.3314C34.8011 32.5073 33.7428 34.4181 32.78 36.182C31.8172 37.9459 30.9499 39.5628 30.384 40.5623C29.8181 41.5619 29.5535 41.9441 29.1052 42.3263C28.6569 42.7085 28.0248 43.0906 27.209 43.3772C26.3932 43.6639 25.3937 43.855 24.1884 44.0167C22.983 44.1784 21.5719 44.3106 20.5062 44.3547C19.4405 44.3988 18.7203 44.3547 18 44.3106M38.6369 51.1456C36.6964 50.5723 34.756 49.9991 33.0141 49.5801C31.2721 49.1612 29.7287 48.8966 28.4719 48.7422C27.2151 48.5879 26.245 48.5439 25.4733 48.5733C24.7015 48.6027 24.1283 48.7055 23.68 48.8745C23.2316 49.0436 22.9083 49.2788 22.754 49.5434C22.5996 49.808 22.6143 50.1019 23.6433 50.6605C24.6722 51.2191 26.7153 52.0422 29.3626 53.0136C32.0099 53.985 35.2613 55.1045 38.5127 56.2241M38.6369 51.1456C40.5774 50.5723 42.518 49.9991 44.2599 49.5801C46.0019 49.1612 47.5453 48.8966 48.8021 48.7422C50.0589 48.5879 51.029 48.5439 51.8007 48.5733C52.5725 48.6027 53.1457 48.7055 53.594 48.8745C54.0424 49.0436 54.3657 49.2788 54.52 49.5434C54.6744 49.808 54.6597 50.1019 53.6307 50.6605C52.6018 51.2191 50.5587 52.0422 47.8026 53.0491C45.0465 54.056 41.5775 55.2467 38.5127 56.2241M38.6369 51.1456C40.6103 51.1456 42.2251 49.531 42.2251 47.5576V32.2291H35.0489V47.5576C35.0489 49.531 36.6635 51.1456 38.6369 51.1456ZM38.5127 56.2241C35.448 57.2016 32.7874 57.966 30.1269 58.7303M41.2643 30.5964C42.3227 32.5073 43.381 34.4181 44.3438 36.182C45.3066 37.9459 46.1739 39.5628 46.7398 40.5623C47.3057 41.5619 47.5703 41.9441 48.0186 42.3263C48.4669 42.7085 49.099 43.0906 49.9148 43.3772C50.7306 43.6639 51.7301 43.855 52.9354 44.0167C54.1408 44.1784 55.5519 44.3106 56.6176 44.3547C57.6833 44.3988 58.4035 44.3547 59.1238 44.3106M43.7308 57.8263C44.8847 58.2085 46.0385 58.5906 47.1924 58.9728L43.7308 57.8263ZM38.6369 16C41.389 16 43.6199 18.231 43.6199 20.983C43.6199 23.735 41.389 25.966 38.6369 25.966C35.8848 25.966 33.6539 23.735 33.6539 20.983C33.6539 18.231 35.8848 16 38.6369 16Z" stroke="#8081BD" stroke-width="3" stroke-miterlimit="22.9256" stroke-linecap="round" stroke-linejoin="round"/>
</g>
</g>
<defs>
<clipPath id="clip0_57_40">
<rect width="76" height="76" fill="white"/>
</clipPath>
<clipPath id="clip1_57_40">
<rect width="45" height="47" fill="white" transform="translate(16 14)"/>
</clipPath>
</defs>
</svg>
