<svg width="56" height="56" viewBox="0 0 56 56" fill="none" xmlns="http://www.w3.org/2000/svg">
<path d="M50.9425 0H5C2.23858 0 0 2.23858 0 5V50.5433C0 53.3047 2.23858 55.5433 5 55.5433H50.9425C53.7039 55.5433 55.9425 53.3047 55.9425 50.5433V5C55.9425 2.23858 53.7039 0 50.9425 0Z" fill="white"/>
<g clip-path="url(#clip0_74_119)">
<path d="M40.286 37.4491H19.8628C18.3033 37.4491 17.0273 38.7159 17.0273 40.2643C17.0273 41.8127 18.3033 43.0796 19.8628 43.0796H40.286V42.6602C39.1087 42.4907 38.1967 41.4782 38.1967 40.2643C38.1967 39.0504 39.1087 38.0379 40.286 37.8684V37.4491ZM40.286 37.4491V11.8602H19.8628C18.3033 11.8602 17.026 13.127 17.0273 14.6755L17.0505 39.9052M19.7303 37.4491V18.1523M22.2946 33.5249V28.4007M37.4532 33.5249V11.8602" stroke="#8081BD" stroke-width="2" stroke-miterlimit="22.9256" stroke-linecap="round" stroke-linejoin="round"/>
</g>
<defs>
<clipPath id="clip0_74_119">
<rect width="26" height="35" fill="white" transform="translate(16 10)"/>
</clipPath>
</defs>
</svg>
