<svg width="76" height="76" viewBox="0 0 76 76" fill="none" xmlns="http://www.w3.org/2000/svg">
<g clip-path="url(#clip0_61_48)">
<path d="M71 0H5C2.23858 0 0 2.23858 0 5V71C0 73.7614 2.23858 76 5 76H71C73.7614 76 76 73.7614 76 71V5C76 2.23858 73.7614 0 71 0Z" fill="white"/>
<g clip-path="url(#clip1_61_48)">
<path d="M38.3688 37.43L42.9268 28.2866C41.5546 27.6012 40.0069 27.215 38.3688 27.215C32.7272 27.215 28.1538 31.7885 28.1538 37.43M38.3688 37.43H48.5838C48.5838 43.0715 44.0104 47.645 38.3688 47.645M38.3688 37.43H58.7376L48.5532 17L38.3688 37.43ZM38.3688 47.645C32.7272 47.645 28.1538 43.0715 28.1538 37.43M38.3688 47.645V57.86H18V37.43H28.1538" stroke="#8081BD" stroke-width="3" stroke-miterlimit="22.9256" stroke-linecap="round" stroke-linejoin="round"/>
</g>
</g>
<defs>
<clipPath id="clip0_61_48">
<rect width="76" height="76" fill="white"/>
</clipPath>
<clipPath id="clip1_61_48">
<rect width="45" height="44" fill="white" transform="translate(16 16)"/>
</clipPath>
</defs>
</svg>
