<svg width="76" height="76" viewBox="0 0 76 76" fill="none" xmlns="http://www.w3.org/2000/svg">
<g clip-path="url(#clip0_63_69)">
<path d="M71 0H5C2.23858 0 0 2.23858 0 5V71C0 73.7614 2.23858 76 5 76H71C73.7614 76 76 73.7614 76 71V5C76 2.23858 73.7614 0 71 0Z" fill="white"/>
<g clip-path="url(#clip1_63_69)">
<path d="M15 41.8267H61.7973M15 41.8267V46.8109H61.7973V41.8267M15 41.8267L19.8948 31.8789H29.2736C28.5813 32.4188 27.8061 33.0763 26.9881 33.8192M61.7973 41.8267L56.9025 31.8789H49.0239C49.7793 32.3513 50.5538 32.8901 51.1901 33.4002M26.9881 33.8192C25.5476 35.1274 23.9747 36.7002 23.0266 37.6336M26.9881 33.8192C28.4286 32.5109 29.7368 31.4673 30.6923 30.8646C31.6477 30.2619 32.2503 30.1003 32.8089 30.0856C33.3675 30.0709 33.8819 30.2032 34.4479 30.5266C35.0138 30.85 35.6312 31.3644 36.2412 31.8863M51.1901 33.4002C52.1529 34.1719 52.7997 34.8775 53.2259 35.4802C53.6522 36.0828 53.858 36.5825 53.9756 36.9427M51.1901 33.4002C50.2274 32.6285 48.9485 31.7907 47.8975 31.2174C46.8465 30.6441 46.0234 30.3355 45.3692 30.1297C44.7151 29.9239 44.2301 29.821 43.6788 29.9019C43.1276 29.9827 42.5103 30.2472 41.8929 30.725C41.2756 31.2027 40.6582 31.8935 40.0188 32.386M36.2412 31.8863L36.2326 31.8789H40.6123C40.4162 32.059 40.2185 32.2322 40.0188 32.386M36.2412 31.8863C36.8512 32.4081 37.4539 32.9372 38.086 33.0548C38.718 33.1724 39.3794 32.8784 40.0188 32.386M48.1662 31.3669L50.7797 21.4296M50.7797 21.4296L55.77 20.7814L56.4039 18.3712L47.3879 16L46.754 18.4102L50.7797 21.4296ZM18.5002 58.7341H58.2971V46.8109H18.5002V58.7341ZM31.0891 33.5053C31.8711 33.5053 32.5051 34.1393 32.5051 34.9213C32.5051 35.7033 31.8711 36.3373 31.0891 36.3373C30.3071 36.3373 29.6731 35.7033 29.6731 34.9213C29.6731 34.1393 30.3071 33.5053 31.0891 33.5053ZM35.7635 36.3276C36.5455 36.3276 37.1795 36.9616 37.1795 37.7436C37.1795 38.5256 36.5455 39.1596 35.7635 39.1596C34.9815 39.1596 34.3475 38.5256 34.3475 37.7436C34.3475 36.9616 34.9815 36.3276 35.7635 36.3276ZM43.8332 32.0942C44.6152 32.0942 45.2492 32.7282 45.2492 33.5102C45.2492 34.2922 44.6152 34.9262 43.8332 34.9262C43.0512 34.9262 42.4172 34.2922 42.4172 33.5102C42.4172 32.7282 43.0512 32.0942 43.8332 32.0942ZM47.6697 35.5338C48.4517 35.5338 49.0857 36.1678 49.0857 36.9498C49.0857 37.7318 48.4517 38.3658 47.6697 38.3658C46.8877 38.3658 46.2537 37.7318 46.2537 36.9498C46.2537 36.1678 46.8877 35.5338 47.6697 35.5338Z" stroke="#8081BD" stroke-width="3" stroke-miterlimit="22.9256" stroke-linecap="round" stroke-linejoin="round"/>
</g>
</g>
<defs>
<clipPath id="clip0_63_69">
<rect width="76" height="76" fill="white"/>
</clipPath>
<clipPath id="clip1_63_69">
<rect width="51" height="47" fill="white" transform="translate(13 14)"/>
</clipPath>
</defs>
</svg>
