<svg width="76" height="76" viewBox="0 0 76 76" fill="none" xmlns="http://www.w3.org/2000/svg">
<g clip-path="url(#clip0_62_66)">
<path d="M71 0H5C2.23858 0 0 2.23858 0 5V71C0 73.7614 2.23858 76 5 76H71C73.7614 76 76 73.7614 76 71V5C76 2.23858 73.7614 0 71 0Z" fill="white"/>
<g clip-path="url(#clip1_62_66)">
<path d="M30.7175 39.6119C28.947 41.1209 26.6511 42.0318 24.1424 42.0318C18.5409 42.0318 14 37.4908 14 31.8894C14 26.288 18.5409 21.747 24.1424 21.747C24.3375 21.747 24.5312 21.7531 24.7236 21.764C26.4748 18.723 29.7577 16.6758 33.5188 16.6758C37.2525 16.6758 40.515 18.6933 42.2755 21.6975" stroke="#8081BD" stroke-width="3" stroke-miterlimit="22.9256" stroke-linecap="round" stroke-linejoin="round"/>
<path d="M50.0537 39.235C48.2341 40.968 45.7712 42.0318 43.06 42.0318C40.3378 42.0318 37.866 40.9594 36.0443 39.214M56.2891 20.336V29.1113M51.7911 20.336V29.1113M54.018 34.2705V49.3518M54.018 49.3518C55.5824 49.3518 56.8623 50.6316 56.8623 52.196V56.8924C56.8623 58.4568 55.5825 59.7366 54.0181 59.7366C52.4537 59.7366 51.1737 58.4568 51.1737 56.8924V52.196C51.1737 50.6316 52.4536 49.3518 54.018 49.3518ZM21.9414 56.104C29.6525 59.0379 37.3637 59.0109 45.075 56.1828V45.2509M26.8761 45.0745V52.3946M21.9414 41.7923V56.1828M47.6847 35.2562C46.653 36.6901 44.9662 37.6021 43.06 37.5763M24.1423 37.5763C21.0015 37.5763 18.4554 35.0302 18.4554 31.8894M51.3497 15H56.6863C59.3745 15 61.5739 17.1993 61.5739 19.8876V29.3829C61.5739 32.0711 59.3745 34.2705 56.6863 34.2705H51.3497C48.6615 34.2705 46.4621 32.0711 46.4621 29.3829V19.8876C46.4621 17.1993 48.6615 15 51.3497 15Z" stroke="#8081BD" stroke-width="3" stroke-miterlimit="22.9256" stroke-linecap="round" stroke-linejoin="round"/>
</g>
</g>
<defs>
<clipPath id="clip0_62_66">
<rect width="76" height="76" fill="white"/>
</clipPath>
<clipPath id="clip1_62_66">
<rect width="52" height="49" fill="white" transform="translate(12 13)"/>
</clipPath>
</defs>
</svg>
