<svg width="56" height="56" viewBox="0 0 56 56" fill="none" xmlns="http://www.w3.org/2000/svg">
<path d="M50.9425 0H5C2.23858 0 0 2.23858 0 5V50.5433C0 53.3047 2.23858 55.5433 5 55.5433H50.9425C53.7039 55.5433 55.9425 53.3047 55.9425 50.5433V5C55.9425 2.23858 53.7039 0 50.9425 0Z" fill="white"/>
<g clip-path="url(#clip0_74_110)">
<path d="M20.3432 40.571H24.4655H24.8876H28.6204H29.0099H32.7427H33.1647H36.865H37.287H41.4093V33.8998C41.4093 32.659 40.3869 31.6438 39.1372 31.6438C38.2273 31.6438 37.4381 32.182 37.076 32.9535M20.3432 40.571V33.8998C20.3432 32.659 21.3657 31.6438 22.6154 31.6438C23.5253 31.6438 24.3145 32.182 24.6766 32.9535M20.3432 40.571L13.8188 24.7471V18.0759C13.8188 16.8351 14.8413 15.8199 16.0911 15.8199C17.0009 15.8199 17.7901 16.3581 18.1522 17.1296M37.076 32.9535C36.7139 32.182 35.9248 31.6438 35.0149 31.6438C34.105 31.6438 33.3158 32.182 32.9537 32.9535M37.076 32.9535L30.5516 17.1296M24.6766 32.9535C25.0386 32.182 25.8279 31.6438 26.7377 31.6438C27.6615 31.6438 28.4609 32.1985 28.8151 32.9889M24.6766 32.9535L18.1522 17.1296M18.1522 17.1296C18.5143 16.3581 19.3035 15.8199 20.2134 15.8199C21.1371 15.8199 21.9365 16.3746 22.2908 17.165M32.9537 32.9535C32.5916 32.182 31.8025 31.6438 30.8926 31.6438C29.9689 31.6438 29.1694 32.1985 28.8151 32.9889M32.9537 32.9535L26.4293 17.1296M30.5516 17.1296C30.9137 16.3581 31.7029 15.8199 32.6128 15.8199C33.5775 15.8199 34.4068 16.4249 34.7349 17.2715M30.5516 17.1296C30.1895 16.3581 29.4004 15.8199 28.4905 15.8199C27.5806 15.8199 26.7914 16.3581 26.4293 17.1296M28.8151 32.9889L22.2908 17.165M26.4293 17.1296C26.0672 16.3581 25.2781 15.8199 24.3682 15.8199C23.4445 15.8199 22.645 16.3746 22.2908 17.165M34.6694 17.1196L41.24 33.0475" stroke="#8081BD" stroke-width="2" stroke-miterlimit="22.9256" stroke-linecap="round" stroke-linejoin="round"/>
</g>
<defs>
<clipPath id="clip0_74_110">
<rect width="31" height="28" fill="white" transform="translate(12 14)"/>
</clipPath>
</defs>
</svg>
