<svg width="56" height="56" viewBox="0 0 56 56" fill="none" xmlns="http://www.w3.org/2000/svg">
<path d="M50.9425 0H5C2.23858 0 0 2.23858 0 5V50.5433C0 53.3047 2.23858 55.5433 5 55.5433H50.9425C53.7039 55.5433 55.9425 53.3047 55.9425 50.5433V5C55.9425 2.23858 53.7039 0 50.9425 0Z" fill="white"/>
<g clip-path="url(#clip0_74_99)">
<path d="M31.1809 11C30.4109 15.0995 29.6408 19.1989 29.088 21.4636C28.5353 23.7281 28.1999 24.1578 26.0359 26.1828C23.872 28.2078 19.8794 31.828 17.7751 33.7886C15.6706 35.7491 15.4542 36.0498 15.2623 36.3614C15.0705 36.6729 14.9032 36.9952 15.0655 37.7095C15.2278 38.4239 15.7197 39.5304 16.0793 40.4005C16.4388 41.2707 16.666 41.9045 16.7905 42.4202C16.9149 42.9359 16.9365 43.3333 16.942 43.7844C16.9473 44.2357 16.9365 44.7406 16.9257 45.2455M30.1042 23.0406C28.0268 23.0298 25.9494 23.0191 24.5537 23.0137C23.1579 23.0083 22.4438 23.0083 21.8649 23.0406C21.286 23.0728 20.8425 23.1372 20.5341 23.2393C20.2257 23.3414 20.0526 23.481 19.306 24.3941C18.5594 25.3072 17.2395 26.9939 16.5795 27.8694C15.9195 28.7449 15.9195 28.8093 16.3415 29.7869C16.7634 30.7644 17.6073 32.6552 18.4512 34.5458M20.2387 23.3854C21.0495 25.7949 21.8602 28.2046 22.2873 29.5168C22.7143 30.829 22.7575 31.0438 22.882 31.1673C23.0064 31.2909 23.2119 31.3231 24.1966 31.1297C25.1812 30.9363 26.9448 30.5174 27.9077 30.3025C28.8707 30.0877 29.033 30.0769 29.6984 30.4959C30.3638 30.9148 31.5324 31.7636 32.4034 32.3759C33.2744 32.9882 33.8478 33.3642 34.4213 33.7402M29.2602 41.2815C28.7084 39.5949 28.1566 37.9083 27.8266 36.9361C27.4966 35.9639 27.3884 35.7061 26.934 35.2871C26.4796 34.8681 25.6789 34.2881 24.8782 33.7079M43.3151 24.4586C41.4109 26.6823 39.5065 28.906 38.5436 30.0769C37.5806 31.2479 37.559 31.3661 37.5211 31.8065C37.4832 32.2469 37.4291 33.0097 37.3859 33.4071C37.3426 33.8046 37.3102 33.8369 36.7908 34.229C36.2715 34.621 35.2652 35.3731 34.7404 35.7705C34.2157 36.168 34.1724 36.211 33.9073 37.1348C33.6422 38.0587 33.1554 39.8635 32.9119 40.7658C32.6684 41.6682 32.6684 41.6682 32.4304 41.9099C32.1924 42.1516 31.7163 42.635 31.3701 42.968C31.0239 43.3011 30.8075 43.4837 30.5856 43.6932C30.3638 43.9027 30.1367 44.139 30.0014 44.3055C29.8661 44.472 29.8229 44.5687 29.7796 44.6654M20.9831 15.1944C22.4613 15.1944 23.6597 16.3842 23.6597 17.8519C23.6597 19.3197 22.4613 20.5095 20.9831 20.5095C19.5048 20.5095 18.3064 19.3197 18.3064 17.8519C18.3064 16.3842 19.5048 15.1944 20.9831 15.1944Z" stroke="#8081BD" stroke-width="2" stroke-miterlimit="22.9256" stroke-linecap="round" stroke-linejoin="round"/>
</g>
<defs>
<clipPath id="clip0_74_99">
<rect width="31" height="37" fill="white" transform="translate(12 9)"/>
</clipPath>
</defs>
</svg>
