<svg width="76" height="76" viewBox="0 0 76 76" fill="none" xmlns="http://www.w3.org/2000/svg">
<g clip-path="url(#clip0_63_72)">
<path d="M71 0H5C2.23858 0 0 2.23858 0 5V71C0 73.7614 2.23858 76 5 76H71C73.7614 76 76 73.7614 76 71V5C76 2.23858 73.7614 0 71 0Z" fill="white"/>
<g clip-path="url(#clip1_63_72)">
<path d="M28.8636 54.8668H34.4639H35.0373H40.1084H40.6376H45.7087H46.2821H51.309H51.8824H57.4827V45.7386C57.4827 44.0408 56.0937 42.6518 54.3959 42.6518C53.1598 42.6518 52.0876 43.3882 51.5957 44.4438M28.8636 54.8668V45.7386C28.8636 44.0408 30.2527 42.6518 31.9505 42.6518C33.1866 42.6518 34.2587 43.3882 34.7506 44.4438M28.8636 54.8668L20 33.215V24.0868C20 22.389 21.3891 21 23.0869 21C24.323 21 25.3951 21.7364 25.887 22.792M51.5957 44.4438C51.1038 43.3882 50.0317 42.6518 48.7956 42.6518C47.5595 42.6518 46.4873 43.3882 45.9954 44.4438M51.5957 44.4438L42.7321 22.792M34.7506 44.4438C35.2425 43.3882 36.3147 42.6518 37.5508 42.6518C38.8057 42.6518 39.8917 43.4107 40.373 44.4922M34.7506 44.4438L25.887 22.792M25.887 22.792C26.3789 21.7364 27.4511 21 28.6872 21C29.9421 21 31.0281 21.7589 31.5094 22.8404M45.9954 44.4438C45.5035 43.3882 44.4314 42.6518 43.1953 42.6518C41.9404 42.6518 40.8543 43.4107 40.373 44.4922M45.9954 44.4438L37.1318 22.792M42.7321 22.792C43.224 21.7364 44.2962 21 45.5323 21C46.8428 21 47.9695 21.8278 48.4152 22.9862M42.7321 22.792C42.2402 21.7364 41.1681 21 39.932 21C38.6959 21 37.6237 21.7364 37.1318 22.792M40.373 44.4922L31.5094 22.8404M37.1318 22.792C36.6399 21.7364 35.5678 21 34.3317 21C33.0768 21 31.9907 21.7589 31.5094 22.8404M48.3263 22.7783L57.2527 44.5724" stroke="#8081BD" stroke-width="3" stroke-miterlimit="22.9256" stroke-linecap="round" stroke-linejoin="round"/>
</g>
</g>
<defs>
<clipPath id="clip0_63_72">
<rect width="76" height="76" fill="white"/>
</clipPath>
<clipPath id="clip1_63_72">
<rect width="41" height="38" fill="white" transform="translate(18 19)"/>
</clipPath>
</defs>
</svg>
