<svg width="56" height="56" viewBox="0 0 56 56" fill="none" xmlns="http://www.w3.org/2000/svg">
<path d="M50.9425 0H5C2.23858 0 0 2.23858 0 5V50.5433C0 53.3047 2.23858 55.5433 5 55.5433H50.9425C53.7039 55.5433 55.9425 53.3047 55.9425 50.5433V5C55.9425 2.23858 53.7039 0 50.9425 0Z" fill="white"/>
<g clip-path="url(#clip0_74_114)">
<path d="M13.3467 22.1023L28.8623 31.5773M13.3467 22.1023V34.2844L28.8623 43.7594M13.3467 22.1023L17.2633 19.6353M28.8623 31.5773V43.7594M28.8623 31.5773L44.3779 22.1023M28.8623 43.7594L44.3779 34.2844V22.1023M44.3779 22.1023L40.5562 19.6973M35.2321 16.3468L32.8039 14.8187M25.268 14.5974L22.4861 16.3482M32.8029 23.7135C32.8029 22.4319 31.119 21.3931 29.0418 21.3931C26.9646 21.3931 25.2807 22.4319 25.2807 23.7135M32.8029 23.7135C32.8029 24.995 31.119 26.0339 29.0418 26.0339C26.9646 26.0339 25.2807 24.995 25.2807 23.7135M32.8029 23.7135C32.8029 23.7595 32.8007 26.1166 32.7964 26.162C32.6816 27.3796 31.0445 28.3453 29.0418 28.3453C27.027 28.3453 25.3821 27.3679 25.2852 26.1397C25.2822 26.1019 25.2807 23.752 25.2807 23.7135M32.8029 13.8841C32.8029 12.6025 31.119 11.5636 29.0418 11.5636C26.9646 11.5636 25.2807 12.6025 25.2807 13.8841M32.8029 13.8841C32.8029 15.1656 31.119 16.2045 29.0418 16.2045C26.9646 16.2045 25.2807 15.1656 25.2807 13.8841M32.8029 13.8841C32.8029 13.93 32.8007 16.2872 32.7964 16.3325C32.6816 17.5501 31.0445 18.5159 29.0418 18.5159C27.027 18.5159 25.3821 17.5384 25.2852 16.3103C25.2822 16.2724 25.2807 13.9226 25.2807 13.8841M24.7855 18.4926C24.7855 17.211 23.1016 16.1722 21.0243 16.1722C18.9471 16.1722 17.2632 17.211 17.2632 18.4926M24.7855 18.4926C24.7855 19.7741 23.1016 20.813 21.0243 20.813C18.9471 20.813 17.2632 19.7741 17.2632 18.4926M24.7855 18.4926C24.7855 18.5386 24.7832 20.8957 24.779 20.941C24.6642 22.1587 23.027 23.1244 21.0243 23.1244C19.0095 23.1244 17.3647 22.147 17.2677 20.9188C17.2648 20.881 17.2632 18.5311 17.2632 18.4926M40.5283 18.4926C40.5283 17.211 38.8444 16.1722 36.7672 16.1722C34.6899 16.1722 33.0061 17.211 33.0061 18.4926M40.5283 18.4926C40.5283 19.7741 38.8444 20.813 36.7672 20.813C34.6899 20.813 33.0061 19.7741 33.0061 18.4926M40.5283 18.4926C40.5283 18.5386 40.5261 20.8957 40.5218 20.941C40.407 22.1587 38.7698 23.1244 36.7672 23.1244C34.7524 23.1244 33.1075 22.147 33.0106 20.9188C33.0076 20.881 33.0061 18.5311 33.0061 18.4926" stroke="#8081BD" stroke-width="2" stroke-miterlimit="22.9256" stroke-linecap="round" stroke-linejoin="round"/>
</g>
<defs>
<clipPath id="clip0_74_114">
<rect width="34" height="35" fill="white" transform="translate(12 10)"/>
</clipPath>
</defs>
</svg>
