<svg width="56" height="56" viewBox="0 0 56 56" fill="none" xmlns="http://www.w3.org/2000/svg">
<path d="M50.9425 0H5C2.23858 0 0 2.23858 0 5V50.5433C0 53.3047 2.23858 55.5433 5 55.5433H50.9425C53.7039 55.5433 55.9425 53.3047 55.9425 50.5433V5C55.9425 2.23858 53.7039 0 50.9425 0Z" fill="white"/>
<g clip-path="url(#clip0_74_126)">
<path d="M10.6108 31.4026H45.0577M10.6108 31.4026V35.0452H45.0577V31.4026M10.6108 31.4026L14.2138 24.1324H21.1174C20.6078 24.527 20.0372 25.0075 19.4351 25.5504M45.0577 31.4026L41.4547 24.1324H35.6554C36.2114 24.4776 36.7815 24.8714 37.2499 25.2442M19.4351 25.5504C18.3748 26.5065 17.217 27.6559 16.5191 28.3381M19.4351 25.5504C20.4954 24.5943 21.4584 23.8316 22.1617 23.3911C22.865 22.9506 23.3085 22.8325 23.7197 22.8218C24.1309 22.811 24.5095 22.9077 24.9262 23.1441C25.3427 23.3804 25.7972 23.7564 26.2462 24.1378M37.2499 25.2442C37.9586 25.8082 38.4347 26.3239 38.7484 26.7643C39.0622 27.2047 39.2137 27.5699 39.3002 27.8332M37.2499 25.2442C36.5412 24.6802 35.5999 24.0679 34.8262 23.6489C34.0526 23.23 33.4467 23.0044 32.9652 22.854C32.4837 22.7036 32.1267 22.6284 31.7209 22.6875C31.3152 22.7466 30.8608 22.9399 30.4063 23.2891C29.9519 23.6382 29.4975 24.1431 29.0268 24.503M26.2462 24.1378L26.2399 24.1324H29.4637C29.3194 24.264 29.1738 24.3906 29.0268 24.503M26.2462 24.1378C26.6952 24.5191 27.1388 24.9058 27.6041 24.9918C28.0693 25.0777 28.5562 24.8629 29.0268 24.503M35.024 23.7582L36.9478 16.4957M36.9478 16.4957L40.6211 16.022L41.0877 14.2605L34.4511 12.5276L33.9845 14.289L36.9478 16.4957ZM13.1873 43.7591H42.4812V35.0452H13.1873V43.7591ZM22.4538 25.321C23.0294 25.321 23.4961 25.7844 23.4961 26.3559C23.4961 26.9274 23.0294 27.3907 22.4538 27.3907C21.8782 27.3907 21.4115 26.9274 21.4115 26.3559C21.4115 25.7844 21.8782 25.321 22.4538 25.321ZM25.8946 27.3836C26.4702 27.3836 26.9369 27.847 26.9369 28.4185C26.9369 28.99 26.4702 29.4534 25.8946 29.4534C25.3189 29.4534 24.8523 28.99 24.8523 28.4185C24.8523 27.847 25.3189 27.3836 25.8946 27.3836ZM31.8346 24.2897C32.4102 24.2897 32.8769 24.7531 32.8769 25.3246C32.8769 25.8961 32.4102 26.3595 31.8346 26.3595C31.2589 26.3595 30.7923 25.8961 30.7923 25.3246C30.7923 24.7531 31.2589 24.2897 31.8346 24.2897ZM34.6586 26.8035C35.2342 26.8035 35.7008 27.2669 35.7008 27.8384C35.7008 28.4099 35.2342 28.8732 34.6586 28.8732C34.0829 28.8732 33.6163 28.4099 33.6163 27.8384C33.6163 27.2669 34.0829 26.8035 34.6586 26.8035Z" stroke="#8081BD" stroke-width="2" stroke-miterlimit="22.9256" stroke-linecap="round" stroke-linejoin="round"/>
</g>
<defs>
<clipPath id="clip0_74_126">
<rect width="38" height="34" fill="white" transform="translate(9 11)"/>
</clipPath>
</defs>
</svg>
