<svg width="76" height="76" viewBox="0 0 76 76" fill="none" xmlns="http://www.w3.org/2000/svg">
<g clip-path="url(#clip0_62_54)">
<path d="M71 0H5C2.23858 0 0 2.23858 0 5V71C0 73.7614 2.23858 76 5 76H71C73.7614 76 76 73.7614 76 71V5C76 2.23858 73.7614 0 71 0Z" fill="white"/>
<g clip-path="url(#clip1_62_54)">
<path d="M31.856 44.0344C31.856 39.3798 28.0827 35.6064 23.428 35.6064C18.7733 35.6064 15 39.3798 15 44.0344C15 48.689 18.7733 52.4624 23.428 52.4624C28.0827 52.4624 31.856 48.689 31.856 44.0344ZM31.856 44.0344H38.4211L46.9759 30.7171M52.7429 44.0344L44.1978 24.2789L48.6957 23M35.1386 44.0344L29.0283 29.9674M25.9415 29.9674H31.4978M52.7429 35.6064C57.3976 35.6064 61.1709 39.3798 61.1709 44.0344C61.1709 48.689 57.3976 52.4624 52.7429 52.4624C48.0882 52.4624 44.3149 48.689 44.3149 44.0344C44.3149 39.3798 48.0882 35.6064 52.7429 35.6064Z" stroke="#8081BD" stroke-width="3" stroke-miterlimit="22.9256" stroke-linecap="round" stroke-linejoin="round"/>
</g>
</g>
<defs>
<clipPath id="clip0_62_54">
<rect width="76" height="76" fill="white"/>
</clipPath>
<clipPath id="clip1_62_54">
<rect width="50" height="33" fill="white" transform="translate(13 21)"/>
</clipPath>
</defs>
</svg>
