<svg width="57" height="56" viewBox="0 0 57 56" fill="none" xmlns="http://www.w3.org/2000/svg">
<path d="M51.0397 0.335815H5.09717C2.33574 0.335815 0.097168 2.57439 0.097168 5.33582V50.8791C0.097168 53.6405 2.33574 55.8791 5.09717 55.8791H51.0397C53.8011 55.8791 56.0397 53.6405 56.0397 50.8791V5.33582C56.0397 2.57439 53.8011 0.335815 51.0397 0.335815Z" fill="white"/>
<path d="M33.2677 16.6249C34.9917 18.5651 37.9735 18.7503 39.9276 17.0386C41.8817 15.3269 42.0683 12.3665 40.3443 10.4263C38.6202 8.48614 35.6385 8.30092 33.6844 10.0126C31.7303 11.7243 31.5437 14.6848 33.2677 16.6249Z" stroke="#8081BD" stroke-width="2" stroke-miterlimit="22.9256" stroke-linecap="round" stroke-linejoin="round"/>
<path fill-rule="evenodd" clip-rule="evenodd" d="M33.9341 20.9983L21.3096 30.3062C21.2502 30.3706 21.1868 30.4327 21.1194 30.4917C20.0927 31.3911 18.526 31.2938 17.6201 30.2744C16.7142 29.2549 16.8124 27.6994 17.839 26.8001C17.9366 26.7146 18.039 26.6382 18.1452 26.5708L28.9257 15.3926C29.0166 16.6931 29.5228 17.9755 30.4587 19.0286C31.4024 20.0906 32.6336 20.7515 33.9341 20.9983Z" stroke="#8081BD" stroke-width="2" stroke-miterlimit="22.9256" stroke-linecap="round" stroke-linejoin="round"/>
<path d="M33.2499 44.425C28.8436 48.2847 21.3473 48.5647 17.4598 44.1899C13.5724 39.815 13.0536 33.9419 17.4598 30.0822" stroke="#8081BD" stroke-width="2" stroke-miterlimit="22.9256" stroke-linecap="round" stroke-linejoin="round"/>
</svg>
