<svg width="57" height="56" viewBox="0 0 57 56" fill="none" xmlns="http://www.w3.org/2000/svg">
<g clip-path="url(#clip0_58_45)">
<path d="M51.0397 0.335815H5.09717C2.33574 0.335815 0.097168 2.57439 0.097168 5.33582V50.8791C0.097168 53.6405 2.33574 55.8791 5.09717 55.8791H51.0397C53.8011 55.8791 56.0397 53.6405 56.0397 50.8791V5.33582C56.0397 2.57439 53.8011 0.335815 51.0397 0.335815Z" fill="white"/>
<g clip-path="url(#clip1_58_45)">
<path d="M26.921 21.3352C26.4449 21.6575 25.9688 21.9798 25.3413 22.8393C24.7137 23.6987 23.9347 25.0952 23.226 26.3843C22.5173 27.6734 21.8789 28.8551 21.4624 29.5856C21.0458 30.3161 20.851 30.5954 20.5211 30.8747C20.1911 31.1541 19.7258 31.4333 19.1253 31.6428C18.5248 31.8523 17.7891 31.992 16.9019 32.1101C16.0146 32.2283 14.9759 32.3249 14.1915 32.3572C13.407 32.3894 12.8769 32.3572 12.3467 32.3249M27.5372 37.3202C26.1088 36.9012 24.6805 36.4823 23.3984 36.1761C22.1161 35.8699 20.98 35.6765 20.0549 35.5637C19.1298 35.4509 18.4157 35.4188 17.8477 35.4403C17.2796 35.4617 16.8576 35.5369 16.5276 35.6604C16.1976 35.784 15.9596 35.9559 15.846 36.1492C15.7324 36.3426 15.7432 36.5574 16.5006 36.9656C17.258 37.3739 18.7619 37.9754 20.7105 38.6854C22.6592 39.3953 25.0525 40.2135 27.4458 41.0317M27.5372 37.3202C28.9656 36.9012 30.394 36.4823 31.6762 36.1761C32.9585 35.8699 34.0946 35.6765 35.0197 35.5637C35.9448 35.4509 36.6589 35.4188 37.2269 35.4403C37.795 35.4617 38.2169 35.5369 38.5469 35.6604C38.877 35.784 39.115 35.9559 39.2285 36.1492C39.3422 36.3426 39.3314 36.5574 38.5739 36.9656C37.8166 37.3739 36.3127 37.9754 34.284 38.7113C32.2552 39.4472 29.7018 40.3174 27.4458 41.0317M27.5372 37.3202C28.9898 37.3202 30.1784 36.1402 30.1784 34.6979V23.4954H24.8961V34.6979C24.8961 36.1402 26.0846 37.3202 27.5372 37.3202ZM27.4458 41.0317C25.1899 41.7461 23.2315 42.3047 21.2731 42.8633M29.4712 22.3021C30.2503 23.6987 31.0293 25.0952 31.738 26.3843C32.4467 27.6734 33.0851 28.8551 33.5016 29.5856C33.9182 30.3161 34.113 30.5954 34.443 30.8747C34.7729 31.1541 35.2382 31.4333 35.8387 31.6428C36.4392 31.8523 37.1749 31.992 38.0621 32.1101C38.9494 32.2283 39.9881 32.3249 40.7726 32.3572C41.557 32.3894 42.0871 32.3572 42.6173 32.3249M31.2868 42.2026C32.1361 42.482 32.9854 42.7612 33.8348 43.0406L31.2868 42.2026ZM27.5372 11.6346C29.563 11.6346 31.2051 13.2651 31.2051 15.2763C31.2051 17.2876 29.563 18.9181 27.5372 18.9181C25.5114 18.9181 23.8693 17.2876 23.8693 15.2763C23.8693 13.2651 25.5114 11.6346 27.5372 11.6346Z" stroke="#8081BD" stroke-width="2" stroke-miterlimit="22.9256" stroke-linecap="round" stroke-linejoin="round"/>
</g>
</g>
<defs>
<clipPath id="clip0_58_45">
<rect width="57" height="56" fill="white"/>
</clipPath>
<clipPath id="clip1_58_45">
<rect width="33" height="35" fill="white" transform="translate(11 10)"/>
</clipPath>
</defs>
</svg>
