<svg width="56" height="56" viewBox="0 0 56 56" fill="none" xmlns="http://www.w3.org/2000/svg">
<path d="M50.9425 0H5C2.23858 0 0 2.23858 0 5V50.5433C0 53.3047 2.23858 55.5433 5 55.5433H50.9425C53.7039 55.5433 55.9425 53.3047 55.9425 50.5433V5C55.9425 2.23858 53.7039 0 50.9425 0Z" fill="white"/>
<g clip-path="url(#clip0_74_95)">
<path d="M43.2904 10.7325C40.6828 14.385 38.0753 18.0375 36.5497 20.1752C35.0241 22.313 34.5805 22.9361 34.2234 23.3389C33.8664 23.7418 33.5959 23.9243 33.2172 24.0372C32.8385 24.15 32.3516 24.1929 30.9342 23.7686C29.5168 23.3443 27.1689 22.4527 24.7669 21.5235C22.3649 20.5942 19.9088 19.6273 18.5402 19.1063C17.1714 18.5853 16.8901 18.5101 16.5926 18.4779C16.295 18.4456 15.9813 18.4564 15.6946 18.5208C15.4078 18.5853 15.1481 18.7035 14.8884 18.913C14.6287 19.1225 14.3691 19.4232 14.0553 20.2343C13.7415 21.0454 13.3737 22.3667 13.206 23.5591C13.0383 24.7516 13.0707 25.8151 13.1357 26.7335C13.2006 27.652 13.2979 28.4255 13.4765 29.0056C13.655 29.5857 13.9147 29.9724 14.2501 30.2947C14.5855 30.617 14.9966 30.8749 16.7008 31.2186C18.0262 31.486 20.1339 31.8054 21.7382 32.0326M32.6319 30.6053C33.4574 30.2838 34.267 29.9349 34.7747 29.6694C35.2838 29.4031 35.4894 29.2205 35.6138 28.968C35.7382 28.7155 35.7815 28.3933 35.7923 28.0764C35.8031 27.7595 35.7815 27.448 35.7761 27.2599C35.7707 27.072 35.7815 27.0075 35.9816 26.9591C36.1819 26.9108 36.5713 26.8786 36.8364 26.8034C37.1015 26.7282 37.2421 26.61 38.3559 24.6554C39.4697 22.7008 41.5566 18.9097 43.6436 15.1187M29.6276 37.0985C29.3364 37.3568 29.0451 37.615 28.7994 38.0235C28.5538 38.432 28.3536 38.9905 28.1913 39.6458C28.029 40.3011 27.9046 41.0532 27.818 41.7057C27.7314 42.3584 27.6827 42.9116 27.6438 43.2949C27.6051 43.6781 27.5761 43.8913 27.5471 44.1046M27.288 26.5885C30.3535 26.5885 32.8386 29.0559 32.8386 32.0995C32.8386 35.1431 30.3535 37.6105 27.288 37.6105C24.2224 37.6105 21.7373 35.1431 21.7373 32.0995C21.7373 29.0559 24.2224 26.5885 27.288 26.5885ZM27.288 28.9094C27.6912 28.9094 28.0181 29.2339 28.0181 29.6343C28.0181 30.0346 27.6912 30.3592 27.288 30.3592C26.8847 30.3592 26.5578 30.0346 26.5578 29.6343C26.5578 29.2339 26.8847 28.9094 27.288 28.9094ZM27.288 33.7597C27.6912 33.7597 28.0181 34.0842 28.0181 34.4846C28.0181 34.8849 27.6912 35.2095 27.288 35.2095C26.8847 35.2095 26.5578 34.8849 26.5578 34.4846C26.5578 34.0842 26.8847 33.7597 27.288 33.7597ZM24.5403 30.4844C24.742 30.1377 25.1884 30.0189 25.5378 30.219C25.8869 30.4193 26.0066 30.8626 25.805 31.2093C25.6033 31.556 25.1568 31.6748 24.8075 31.4747C24.4584 31.2744 24.3387 30.8311 24.5403 30.4844ZM28.771 32.9096C28.9726 32.5629 29.4192 32.444 29.7683 32.6442C30.1176 32.8444 30.2372 33.2878 30.0356 33.6345C29.8341 33.9812 29.3875 34.1 29.0383 33.8997C28.6891 33.6997 28.5694 33.2564 28.771 32.9096ZM24.5404 33.6344C24.742 33.9811 25.1885 34.0999 25.5377 33.8997C25.8869 33.6995 26.0066 33.2562 25.805 32.9095C25.6033 32.5628 25.1568 32.444 24.8076 32.6441C24.4584 32.8443 24.3388 33.2877 24.5404 33.6344ZM28.771 31.2092C28.9726 31.5559 29.4192 31.6748 29.7684 31.4746C30.1176 31.2744 30.2372 30.831 30.0356 30.4843C29.834 30.1376 29.3875 30.0188 29.0383 30.219C28.6891 30.4192 28.5694 30.8625 28.771 31.2092ZM24.9374 37.0934C25.2286 37.3517 25.5199 37.61 25.7656 38.0185C26.0112 38.4269 26.2114 38.9855 26.3737 39.6408C26.536 40.2961 26.6604 41.0481 26.747 41.7007C26.8336 42.3533 26.8823 42.9066 26.9212 43.2898C26.96 43.6731 26.989 43.8862 27.018 44.0995L24.9374 37.0934Z" stroke="#8081BD" stroke-width="2" stroke-miterlimit="22.9256" stroke-linecap="round" stroke-linejoin="round"/>
</g>
<defs>
<clipPath id="clip0_74_95">
<rect width="33" height="37" fill="white" transform="translate(12 9)"/>
</clipPath>
</defs>
</svg>
