<svg width="56" height="56" viewBox="0 0 56 56" fill="none" xmlns="http://www.w3.org/2000/svg">
<path d="M50.9425 0H5C2.23858 0 0 2.23858 0 5V50.5433C0 53.3047 2.23858 55.5433 5 55.5433H50.9425C53.7039 55.5433 55.9425 53.3047 55.9425 50.5433V5C55.9425 2.23858 53.7039 0 50.9425 0Z" fill="white"/>
<g clip-path="url(#clip0_74_123)">
<path d="M23.4437 29.1467C22.1405 30.2495 20.4505 30.9152 18.6039 30.9152C14.4807 30.9152 11.1382 27.5965 11.1382 23.5028C11.1382 19.4092 14.4807 16.0905 18.6039 16.0905C18.7475 16.0905 18.8901 16.0949 19.0317 16.1029C20.3207 13.8804 22.7372 12.3843 25.5057 12.3843C28.254 12.3843 30.6555 13.8587 31.9514 16.0543" stroke="#8081BD" stroke-width="2" stroke-miterlimit="22.9256" stroke-linecap="round" stroke-linejoin="round"/>
<path d="M37.6766 28.8713C36.3372 30.1378 34.5243 30.9153 32.5286 30.9153C30.5248 30.9153 28.7054 30.1315 27.3644 28.8559M42.2663 15.0593V21.4726M38.9554 15.0593V21.4726M40.5946 25.2431V36.265M40.5946 36.265C41.7461 36.265 42.6883 37.2003 42.6883 38.3436V41.7759C42.6883 42.9192 41.7462 43.8545 40.5947 43.8545C39.4432 43.8545 38.501 42.9192 38.501 41.7759V38.3436C38.501 37.2003 39.4431 36.265 40.5946 36.265ZM16.9835 41.1997C22.6595 43.3439 28.3356 43.3242 34.0118 41.2573V33.2679M20.6158 33.139V38.4888M16.9835 30.7402V41.2573M35.9328 25.9634C35.1733 27.0114 33.9317 27.6779 32.5286 27.6591M18.6035 27.6591C16.2916 27.6591 14.4175 25.7983 14.4175 23.5029M38.6305 11.1595H42.5587C44.5375 11.1595 46.1564 12.7669 46.1564 14.7316V21.671C46.1564 23.6357 44.5375 25.2431 42.5587 25.2431H38.6305C36.6518 25.2431 35.0328 23.6357 35.0328 21.671V14.7316C35.0328 12.7669 36.6518 11.1595 38.6305 11.1595Z" stroke="#8081BD" stroke-width="2" stroke-miterlimit="22.9256" stroke-linecap="round" stroke-linejoin="round"/>
</g>
<defs>
<clipPath id="clip0_74_123">
<rect width="38" height="35" fill="white" transform="translate(10 10)"/>
</clipPath>
</defs>
</svg>
