<svg width="56" height="56" viewBox="0 0 56 56" fill="none" xmlns="http://www.w3.org/2000/svg">
<path d="M50.9425 0H5C2.23858 0 0 2.23858 0 5V50.5433C0 53.3047 2.23858 55.5433 5 55.5433H50.9425C53.7039 55.5433 55.9425 53.3047 55.9425 50.5433V5C55.9425 2.23858 53.7039 0 50.9425 0Z" fill="white"/>
<g clip-path="url(#clip0_74_102)">
<path d="M22.9529 32.7375C22.9529 29.3358 20.1754 26.578 16.7491 26.578C13.3229 26.578 10.5454 29.3358 10.5454 32.7375C10.5454 36.1392 13.3229 38.897 16.7491 38.897C20.1754 38.897 22.9529 36.1392 22.9529 32.7375ZM22.9529 32.7375H27.7854L34.0824 23.0048M38.3274 32.7375L32.0375 18.2995L35.3483 17.3649M25.3692 32.7375L20.8715 22.4569M18.5993 22.4569H22.6892M38.3274 26.578C41.7537 26.578 44.5312 29.3358 44.5312 32.7375C44.5312 36.1392 41.7537 38.897 38.3274 38.897C34.9012 38.897 32.1237 36.1392 32.1237 32.7375C32.1237 29.3358 34.9012 26.578 38.3274 26.578Z" stroke="#8081BD" stroke-width="2" stroke-miterlimit="22.9256" stroke-linecap="round" stroke-linejoin="round"/>
</g>
<defs>
<clipPath id="clip0_74_102">
<rect width="37" height="24" fill="white" transform="translate(9 16)"/>
</clipPath>
</defs>
</svg>
