<svg width="76" height="76" viewBox="0 0 76 76" fill="none" xmlns="http://www.w3.org/2000/svg">
<g clip-path="url(#clip0_29_65)">
<path d="M66 0H10C4.47715 0 0 4.47715 0 10V66C0 71.5229 4.47715 76 10 76H66C71.5229 76 76 71.5229 76 66V10C76 4.47715 71.5229 0 66 0Z" fill="#F6B31F"/>
</g>
<g clip-path="url(#clip1_29_65)">
<path fill-rule="evenodd" clip-rule="evenodd" d="M34.5494 15.0001C35.0499 15.0001 35.4594 15.4095 35.4594 15.9098V26.7013H37.2791V15.9099C37.2791 15.4095 37.6885 15.0001 38.189 15.0001C38.6895 15.0001 39.0989 15.4095 39.0989 15.9099V27.6111C39.0989 28.1116 38.6896 28.5211 38.1891 28.5211H35.4594V59.7911C35.4594 60.2915 35.05 60.7009 34.5495 60.7009C34.0491 60.7009 33.6396 60.2915 33.6396 59.7911V28.5211H30.9099C30.4095 28.5211 30 28.1117 30 27.6112V15.9099C30 15.4095 30.4094 15.0001 30.9098 15.0001C31.4103 15.0001 31.8198 15.4095 31.8198 15.9099V26.7013H33.6396V15.9098C33.6396 15.4095 34.049 15.0001 34.5494 15.0001ZM44.9592 15.0027L44.982 15.0048C45.4458 15.052 45.8564 15.4442 45.7992 15.9098V59.7911C45.7992 60.2915 45.3898 60.7009 44.8894 60.7009C44.3889 60.7009 43.9794 60.2915 43.9794 59.7911V46.388H41.2498L41.2264 46.3877L41.2031 46.3867L41.1799 46.3853L41.157 46.3833L41.1342 46.3807L41.1332 46.3806C40.6792 46.323 40.2834 45.9362 40.3398 45.4781C40.3398 45.4025 40.3493 45.3289 40.3669 45.2586L43.9794 15.9098C43.9794 15.4407 44.3392 15.0515 44.7966 15.0048L44.8195 15.0027L44.8427 15.0013L44.8659 15.0004L44.8893 15.0001C44.9126 15.0001 44.936 15.0009 44.9592 15.0027Z" stroke="white" stroke-width="3" stroke-miterlimit="22.9256" stroke-linecap="round" stroke-linejoin="round"/>
</g>
<defs>
<clipPath id="clip0_29_65">
<rect width="76" height="76" fill="white"/>
</clipPath>
<clipPath id="clip1_29_65">
<rect width="20" height="50" fill="white" transform="translate(28 13)"/>
</clipPath>
</defs>
</svg>
