<svg width="57" height="57" viewBox="0 0 57 57" fill="none" xmlns="http://www.w3.org/2000/svg">
<path d="M46.8561 0H10C4.47715 0 0 4.47715 0 10V46.8561C0 52.3789 4.47715 56.8561 10 56.8561H46.8561C52.3789 56.8561 56.8561 52.3789 56.8561 46.8561V10C56.8561 4.47715 52.3789 0 46.8561 0Z" fill="#F6B31F"/>
<g clip-path="url(#clip0_44_137)">
<path fill-rule="evenodd" clip-rule="evenodd" d="M25.8468 10.7179C26.2212 10.7179 26.5275 11.0241 26.5275 11.3984V19.4716H27.8889V11.3985C27.8889 11.0241 28.1952 10.7179 28.5696 10.7179C28.944 10.7179 29.2503 11.0241 29.2503 11.3985V20.1522C29.2503 20.5266 28.9441 20.833 28.5697 20.833H26.5275V44.2262C26.5275 44.6006 26.2213 44.9069 25.8469 44.9069C25.4725 44.9069 25.1661 44.6006 25.1661 44.2262V20.833H23.1241C22.7497 20.833 22.4434 20.5267 22.4434 20.1523V11.3985C22.4434 11.0241 22.7496 10.7179 23.124 10.7179C23.4984 10.7179 23.8047 11.0241 23.8047 11.3985V19.4716H25.1661V11.3984C25.1661 11.0241 25.4724 10.7179 25.8468 10.7179ZM33.6344 10.7198L33.6515 10.7214C33.9985 10.7567 34.3057 11.0501 34.2629 11.3984V44.2262C34.2629 44.6006 33.9566 44.9069 33.5822 44.9069C33.2078 44.9069 32.9015 44.6006 32.9015 44.2262V34.1993H30.8594L30.8419 34.1991L30.8245 34.1984L30.8071 34.1973L30.79 34.1958L30.773 34.1938C30.4333 34.1507 30.1364 33.8613 30.1787 33.5186C30.1787 33.462 30.1857 33.407 30.1989 33.3544L32.9015 11.3984C32.9015 11.0475 33.1706 10.7563 33.5128 10.7214L33.5299 10.7198L33.5473 10.7188L33.5646 10.7181L33.5821 10.7179C33.5996 10.7179 33.6171 10.7185 33.6344 10.7198Z" stroke="white" stroke-width="2" stroke-miterlimit="22.9256" stroke-linecap="round" stroke-linejoin="round"/>
</g>
<defs>
<clipPath id="clip0_44_137">
<rect width="15" height="37" fill="white" transform="translate(21 9)"/>
</clipPath>
</defs>
</svg>
