<svg width="57" height="57" viewBox="0 0 57 57" fill="none" xmlns="http://www.w3.org/2000/svg">
<path d="M46.8561 0H10C4.47715 0 0 4.47715 0 10V46.8561C0 52.3789 4.47715 56.8561 10 56.8561H46.8561C52.3789 56.8561 56.8561 52.3789 56.8561 46.8561V10C56.8561 4.47715 52.3789 0 46.8561 0Z" fill="#F3ACC8"/>
<g clip-path="url(#clip0_44_113)">
<path d="M42.3151 31.6317C42.3144 33.505 42.3134 35.3076 42.3123 35.3528C42.1618 40.7404 37.7467 45.0618 32.3226 45.0618C26.9362 45.0618 22.545 40.8004 22.3368 35.4652C22.3318 35.3337 22.3291 27.5725 22.3291 27.4396" stroke="white" stroke-width="2" stroke-miterlimit="22.9256" stroke-linecap="round" stroke-linejoin="round"/>
<path d="M42.316 31.6317C44.6312 31.6317 46.5081 29.7549 46.5081 27.4397C46.5081 25.1245 44.6312 23.2477 42.316 23.2477C40.0009 23.2477 38.124 25.1245 38.124 27.4397C38.124 29.7549 40.0009 31.6317 42.316 31.6317Z" stroke="white" stroke-width="2" stroke-miterlimit="22.9256" stroke-linecap="round" stroke-linejoin="round"/>
<path d="M42.3163 29.3271C43.3587 29.3271 44.2038 28.482 44.2038 27.4396C44.2038 26.3971 43.3587 25.552 42.3163 25.552C41.2738 25.552 40.4287 26.3971 40.4287 27.4396C40.4287 28.482 41.2738 29.3271 42.3163 29.3271Z" stroke="white" stroke-width="2" stroke-miterlimit="22.9256" stroke-linecap="round" stroke-linejoin="round"/>
<path d="M30.5223 13.9967C31.5648 13.9967 32.4099 13.1516 32.4099 12.1091C32.4099 11.0666 31.5648 10.2216 30.5223 10.2216C29.4798 10.2216 28.6348 11.0666 28.6348 12.1091C28.6348 13.1516 29.4798 13.9967 30.5223 13.9967Z" stroke="white" stroke-width="2" stroke-miterlimit="22.9256" stroke-linecap="round" stroke-linejoin="round"/>
<path d="M14.1092 14.037C15.1517 14.037 15.9968 13.1919 15.9968 12.1494C15.9968 11.1069 15.1517 10.2618 14.1092 10.2618C13.0668 10.2618 12.2217 11.1069 12.2217 12.1494C12.2217 13.1919 13.0668 14.037 14.1092 14.037Z" stroke="white" stroke-width="2" stroke-miterlimit="22.9256" stroke-linecap="round" stroke-linejoin="round"/>
<path d="M31.4172 13.7712C31.9102 14.9445 32.1829 16.2334 32.1829 17.5858C32.1829 23.0278 27.7711 27.4396 22.3289 27.4396C16.8868 27.4396 12.4751 23.0278 12.4751 17.5858C12.4751 16.2504 12.7407 14.9771 13.2221 13.8159" stroke="white" stroke-width="2" stroke-miterlimit="22.9256" stroke-linecap="round" stroke-linejoin="round"/>
</g>
<defs>
<clipPath id="clip0_44_113">
<rect width="37" height="38" fill="white" transform="translate(11 9)"/>
</clipPath>
</defs>
</svg>
