<svg width="57" height="57" viewBox="0 0 57 57" fill="none" xmlns="http://www.w3.org/2000/svg">
<g clip-path="url(#clip0_44_105)">
<path d="M46.8561 0H10C4.47715 0 0 4.47715 0 10V46.8561C0 52.3789 4.47715 56.8561 10 56.8561H46.8561C52.3789 56.8561 56.8561 52.3789 56.8561 46.8561V10C56.8561 4.47715 52.3789 0 46.8561 0Z" fill="#F6B31F"/>
<g clip-path="url(#clip1_44_105)">
<path fill-rule="evenodd" clip-rule="evenodd" d="M23.4808 14.4658C30.6644 14.4658 36.4879 19.1161 36.4879 24.8526C36.4879 30.589 30.6644 35.2394 23.4808 35.2394C23.1794 35.2394 22.8804 35.2305 22.5841 35.2143C20.4425 36.8404 17.5992 37.8773 14.4489 38.0435C15.8374 36.6952 16.8087 35.9764 17.2054 33.9521C13.1922 32.1836 10.4736 28.7717 10.4736 24.8526C10.4736 19.1161 16.2971 14.4658 23.4808 14.4658ZM24.1121 37.7112C26.4221 39.5358 29.4908 40.6478 32.8584 40.6478C33.1599 40.6478 33.4588 40.6381 33.7551 40.6206C35.8967 42.3901 38.74 43.5182 41.8903 43.6991C40.5018 42.2319 39.5305 41.4498 39.1338 39.2471C43.1471 37.3227 45.8656 33.6102 45.8656 29.3457C45.8656 24.1195 41.7829 19.7225 36.2378 18.4297C38.0743 20.3784 39.1766 22.8696 39.1766 25.5849C39.1766 31.8268 33.3532 36.887 26.1695 36.887C25.8681 36.887 25.5692 36.8773 25.2729 36.8598C24.9059 37.1629 24.5183 37.4473 24.1121 37.7112Z" stroke="white" stroke-width="2" stroke-miterlimit="22.9256" stroke-linecap="round" stroke-linejoin="round"/>
</g>
</g>
<defs>
<clipPath id="clip0_44_105">
<rect width="57" height="57" fill="white"/>
</clipPath>
<clipPath id="clip1_44_105">
<rect width="38" height="32" fill="white" transform="translate(9 13)"/>
</clipPath>
</defs>
</svg>
