<svg width="57" height="57" viewBox="0 0 57 57" fill="none" xmlns="http://www.w3.org/2000/svg">
<path d="M46.8561 0H10C4.47715 0 0 4.47715 0 10V46.8561C0 52.3789 4.47715 56.8561 10 56.8561H46.8561C52.3789 56.8561 56.8561 52.3789 56.8561 46.8561V10C56.8561 4.47715 52.3789 0 46.8561 0Z" fill="#8081BD"/>
<g clip-path="url(#clip0_44_133)">
<path fill-rule="evenodd" clip-rule="evenodd" d="M28.323 10.2216H28.3331L32.4803 14.3688V44.4291H24.1758V14.3687L28.323 10.2216Z" stroke="white" stroke-width="2" stroke-miterlimit="22.9256" stroke-linecap="round" stroke-linejoin="round"/>
<path fill-rule="evenodd" clip-rule="evenodd" d="M17.7927 10.2216H17.8028L21.9501 14.3688V44.4291H13.6455V14.3687L17.7927 10.2216Z" stroke="white" stroke-width="2" stroke-miterlimit="22.9256" stroke-linecap="round" stroke-linejoin="round"/>
<path fill-rule="evenodd" clip-rule="evenodd" d="M38.8532 10.2216H38.8633L43.0106 14.3688V44.4291H34.7061V14.3687L38.8532 10.2216Z" stroke="white" stroke-width="2" stroke-miterlimit="22.9256" stroke-linecap="round" stroke-linejoin="round"/>
<path fill-rule="evenodd" clip-rule="evenodd" d="M13.6454 19.7468V26.6676H11.2217V19.7468H13.6454Z" stroke="white" stroke-width="2" stroke-miterlimit="22.9256" stroke-linecap="round" stroke-linejoin="round"/>
<path fill-rule="evenodd" clip-rule="evenodd" d="M45.4339 19.7468V26.6676H43.0103V19.7468H45.4339Z" stroke="white" stroke-width="2" stroke-miterlimit="22.9256" stroke-linecap="round" stroke-linejoin="round"/>
<path fill-rule="evenodd" clip-rule="evenodd" d="M34.7057 19.7468V26.6676H32.48V19.7468H34.7057Z" stroke="white" stroke-width="2" stroke-miterlimit="22.9256" stroke-linecap="round" stroke-linejoin="round"/>
<path fill-rule="evenodd" clip-rule="evenodd" d="M24.1759 19.7468V26.6676H21.9502V19.7468H24.1759Z" stroke="white" stroke-width="2" stroke-miterlimit="22.9256" stroke-linecap="round" stroke-linejoin="round"/>
<path fill-rule="evenodd" clip-rule="evenodd" d="M13.6454 32.3416V39.2623H11.2217V32.3416H13.6454Z" stroke="white" stroke-width="2" stroke-miterlimit="22.9256" stroke-linecap="round" stroke-linejoin="round"/>
<path fill-rule="evenodd" clip-rule="evenodd" d="M45.4339 32.3416V39.2623H43.0103V32.3416H45.4339Z" stroke="white" stroke-width="2" stroke-miterlimit="22.9256" stroke-linecap="round" stroke-linejoin="round"/>
<path fill-rule="evenodd" clip-rule="evenodd" d="M34.7057 32.3416V39.2623H32.48V32.3416H34.7057Z" stroke="white" stroke-width="2" stroke-miterlimit="22.9256" stroke-linecap="round" stroke-linejoin="round"/>
<path fill-rule="evenodd" clip-rule="evenodd" d="M24.1759 32.3416V39.2623H21.9502V32.3416H24.1759Z" stroke="white" stroke-width="2" stroke-miterlimit="22.9256" stroke-linecap="round" stroke-linejoin="round"/>
</g>
<defs>
<clipPath id="clip0_44_133">
<rect width="37" height="37" fill="white" transform="translate(10 9)"/>
</clipPath>
</defs>
</svg>
