<svg width="57" height="57" viewBox="0 0 57 57" fill="none" xmlns="http://www.w3.org/2000/svg">
<g clip-path="url(#clip0_39_87)">
<path d="M46.8561 0H10C4.47715 0 0 4.47715 0 10V46.8561C0 52.3789 4.47715 56.8561 10 56.8561H46.8561C52.3789 56.8561 56.8561 52.3789 56.8561 46.8561V10C56.8561 4.47715 52.3789 0 46.8561 0Z" fill="#F6B31F"/>
<g clip-path="url(#clip1_39_87)">
<path d="M28.3305 45.4392C37.7794 45.4392 45.4393 37.7793 45.4393 28.3304C45.4393 18.8814 37.7794 11.2216 28.3305 11.2216C18.8815 11.2216 11.2217 18.8814 11.2217 28.3304C11.2217 37.7793 18.8815 45.4392 28.3305 45.4392Z" stroke="white" stroke-width="2" stroke-miterlimit="22.9256" stroke-linecap="round" stroke-linejoin="round"/>
<path d="M28.3307 13.2747V28.3304H17.3242" stroke="white" stroke-width="2" stroke-miterlimit="22.9256" stroke-linecap="round" stroke-linejoin="round"/>
</g>
</g>
<defs>
<clipPath id="clip0_39_87">
<rect width="57" height="57" fill="white"/>
</clipPath>
<clipPath id="clip1_39_87">
<rect width="37" height="37" fill="white" transform="translate(10 10)"/>
</clipPath>
</defs>
</svg>
