<svg width="76" height="76" viewBox="0 0 76 76" fill="none" xmlns="http://www.w3.org/2000/svg">
<rect width="76" height="76" rx="10" fill="#F3ACC8"/>
<g clip-path="url(#clip0_27_45)">
<path d="M47.4294 52.7497C46.7464 58.8537 41.5318 63.6401 35.2526 63.6401C28.5132 63.6401 23 58.1265 23 51.3875V30.2526C23 23.5137 28.5132 18 35.2526 18C41.992 18 47.5052 23.5137 47.5052 30.2526V35.6679" stroke="white" stroke-width="3" stroke-miterlimit="22.9256" stroke-linecap="round" stroke-linejoin="round"/>
<path fill-rule="evenodd" clip-rule="evenodd" d="M35.2526 21.2956C40.1425 21.2956 44.1065 25.2597 44.1065 30.1496C44.1065 34.282 41.2755 37.7529 37.4472 38.7292C37.2456 37.7011 36.3398 36.9255 35.2526 36.9255C34.1654 36.9255 33.2596 37.7011 33.0579 38.7292C29.2296 37.7529 26.3986 34.282 26.3986 30.1496C26.3986 25.2597 30.3626 21.2956 35.2526 21.2956Z" stroke="white" stroke-width="3" stroke-miterlimit="22.9256" stroke-linecap="round" stroke-linejoin="round"/>
<path d="M35.2526 41.3988C36.4879 41.3988 37.4893 40.3974 37.4893 39.1621C37.4893 37.9268 36.4879 36.9254 35.2526 36.9254C34.0173 36.9254 33.0159 37.9268 33.0159 39.1621C33.0159 40.3974 34.0173 41.3988 35.2526 41.3988Z" stroke="white" stroke-width="3" stroke-miterlimit="22.9256" stroke-linecap="round" stroke-linejoin="round"/>
<path d="M29.817 31.2017C30.1414 30.3666 30.9528 29.7747 31.9025 29.7747C32.8522 29.7747 33.6637 30.3666 33.9881 31.2017" stroke="white" stroke-width="3" stroke-miterlimit="22.9256" stroke-linecap="round" stroke-linejoin="round"/>
<path d="M36.517 31.2017C36.8414 30.3666 37.6528 29.7747 38.6026 29.7747C39.5523 29.7747 40.3637 30.3666 40.6881 31.2017" stroke="white" stroke-width="3" stroke-miterlimit="22.9256" stroke-linecap="round" stroke-linejoin="round"/>
<path d="M31.9025 34.1201C32.7837 34.1201 33.498 33.4058 33.498 32.5246C33.498 31.6435 32.7837 30.9292 31.9025 30.9292C31.0214 30.9292 30.3071 31.6435 30.3071 32.5246C30.3071 33.4058 31.0214 34.1201 31.9025 34.1201Z" stroke="white" stroke-width="3" stroke-miterlimit="22.9256" stroke-linecap="round" stroke-linejoin="round"/>
<path d="M38.6025 34.1201C39.4837 34.1201 40.198 33.4058 40.198 32.5246C40.198 31.6435 39.4837 30.9292 38.6025 30.9292C37.7214 30.9292 37.0071 31.6435 37.0071 32.5246C37.0071 33.4058 37.7214 34.1201 38.6025 34.1201Z" stroke="white" stroke-width="3" stroke-miterlimit="22.9256" stroke-linecap="round" stroke-linejoin="round"/>
<path d="M35.2526 40.196C35.8234 40.196 36.2862 39.7332 36.2862 39.1623C36.2862 38.5914 35.8234 38.1287 35.2526 38.1287C34.6817 38.1287 34.2189 38.5914 34.2189 39.1623C34.2189 39.7332 34.6817 40.196 35.2526 40.196Z" stroke="white" stroke-width="3" stroke-miterlimit="22.9256" stroke-linecap="round" stroke-linejoin="round"/>
<path fill-rule="evenodd" clip-rule="evenodd" d="M42.4388 45.6766V42.6988H46.0163V39.1213H48.9941V42.6988H52.5716V45.6766H48.9941V49.2541H46.0163V45.6766H42.4388Z" stroke="white" stroke-width="3" stroke-miterlimit="22.9256" stroke-linecap="round" stroke-linejoin="round"/>
</g>
<defs>
<clipPath id="clip0_27_45">
<rect width="34" height="50" fill="white" transform="translate(21 16)"/>
</clipPath>
</defs>
</svg>
