<svg width="57" height="57" viewBox="0 0 57 57" fill="none" xmlns="http://www.w3.org/2000/svg">
<g clip-path="url(#clip0_43_102)">
<path d="M46.8561 0H10C4.47715 0 0 4.47715 0 10V46.8561C0 52.3789 4.47715 56.8561 10 56.8561H46.8561C52.3789 56.8561 56.8561 52.3789 56.8561 46.8561V10C56.8561 4.47715 52.3789 0 46.8561 0Z" fill="#8081BD"/>
<g clip-path="url(#clip1_43_102)">
<path fill-rule="evenodd" clip-rule="evenodd" d="M41.6746 39.0215C38.5392 42.9335 33.7218 45.4392 28.3183 45.4392C22.9148 45.4392 18.0973 42.9335 14.9619 39.0215C16.7442 36.798 19.0698 35.0287 21.7379 33.916C23.6409 35.1233 25.8978 35.8229 28.3183 35.8229C30.7388 35.8229 32.9956 35.1233 34.8986 33.916C37.5667 35.0287 39.8923 36.798 41.6746 39.0215Z" stroke="white" stroke-width="2" stroke-miterlimit="22.9256" stroke-linejoin="round"/>
<path d="M28.3183 35.8229C35.1117 35.8229 40.6189 30.3157 40.6189 23.5222C40.6189 16.7288 35.1117 11.2216 28.3183 11.2216C21.5248 11.2216 16.0176 16.7288 16.0176 23.5222C16.0176 30.3157 21.5248 35.8229 28.3183 35.8229Z" stroke="white" stroke-width="2" stroke-miterlimit="22.9256" stroke-linejoin="round"/>
<path d="M28.3184 30.0643C31.9315 30.0643 34.8604 27.1353 34.8604 23.5223C34.8604 19.9092 31.9315 16.9802 28.3184 16.9802C24.7053 16.9802 21.7764 19.9092 21.7764 23.5223C21.7764 27.1353 24.7053 30.0643 28.3184 30.0643Z" stroke="white" stroke-width="2" stroke-miterlimit="22.9256" stroke-linejoin="round"/>
<path d="M28.3185 25.6089C29.4709 25.6089 30.4051 24.6747 30.4051 23.5223C30.4051 22.3699 29.4709 21.4357 28.3185 21.4357C27.1661 21.4357 26.2319 22.3699 26.2319 23.5223C26.2319 24.6747 27.1661 25.6089 28.3185 25.6089Z" stroke="white" stroke-width="2" stroke-miterlimit="22.9256" stroke-linejoin="round"/>
</g>
</g>
<defs>
<clipPath id="clip0_43_102">
<rect width="57" height="57" fill="white"/>
</clipPath>
<clipPath id="clip1_43_102">
<rect width="30" height="37" fill="white" transform="translate(13 10)"/>
</clipPath>
</defs>
</svg>
