<svg width="57" height="57" viewBox="0 0 57 57" fill="none" xmlns="http://www.w3.org/2000/svg">
<g clip-path="url(#clip0_43_96)">
<path d="M46.8561 0H10C4.47715 0 0 4.47715 0 10V46.8561C0 52.3789 4.47715 56.8561 10 56.8561H46.8561C52.3789 56.8561 56.8561 52.3789 56.8561 46.8561V10C56.8561 4.47715 52.3789 0 46.8561 0Z" fill="#F3ACC8"/>
<g clip-path="url(#clip1_43_96)">
<path fill-rule="evenodd" clip-rule="evenodd" d="M32.9144 11.9697C33.5623 11.9697 34.0875 12.495 34.0875 13.1429C34.0875 13.6832 33.7222 14.1381 33.225 14.2743C32.8383 14.1434 32.4442 14.0288 32.044 13.9293C31.8559 13.7212 31.7412 13.4455 31.7412 13.1429C31.7412 12.495 32.2665 11.9697 32.9144 11.9697Z" stroke="white" stroke-width="2" stroke-miterlimit="22.9256" stroke-linecap="round" stroke-linejoin="round"/>
<path fill-rule="evenodd" clip-rule="evenodd" d="M28.4248 13.4875C36.6865 13.4875 43.3838 20.185 43.3838 28.4465C43.3838 35.6168 38.3386 41.6078 31.6046 43.0656C31.6656 42.8157 31.6983 42.5546 31.6983 42.2859C31.6983 40.478 30.2327 39.0124 28.4248 39.0124C26.6169 39.0124 25.1513 40.478 25.1513 42.2859C25.1513 42.5546 25.184 42.8157 25.245 43.0656C18.511 41.6078 13.4658 35.6168 13.4658 28.4465C13.4658 20.185 20.1631 13.4875 28.4248 13.4875Z" stroke="white" stroke-width="2" stroke-miterlimit="22.9256" stroke-linecap="round" stroke-linejoin="round"/>
<path fill-rule="evenodd" clip-rule="evenodd" d="M34.5768 12.5684C35.2247 12.5684 35.75 13.0936 35.75 13.7415C35.75 14.3228 35.327 14.8053 34.7722 14.8984C34.3947 14.7212 34.0089 14.5588 33.615 14.413C33.5621 14.3375 33.518 14.2555 33.4839 14.1684C33.8437 13.9681 34.0872 13.5839 34.0872 13.1429C34.0872 12.9922 34.0587 12.8482 34.007 12.7158C34.1757 12.6219 34.3701 12.5684 34.5768 12.5684Z" stroke="white" stroke-width="2" stroke-miterlimit="22.9256" stroke-linecap="round" stroke-linejoin="round"/>
<path d="M17.0977 30.1779C17.7591 28.1669 19.652 26.715 21.8843 26.715C24.1167 26.715 26.0095 28.1669 26.671 30.1779M30.1792 30.1779C30.8406 28.1669 32.7335 26.715 34.9658 26.715C37.1982 26.715 39.0911 28.1669 39.7525 30.1779" stroke="white" stroke-width="2" stroke-miterlimit="22.9256" stroke-linecap="round" stroke-linejoin="round"/>
<path fill-rule="evenodd" clip-rule="evenodd" d="M28.4253 37.7753C30.8313 37.7753 32.7817 38.6064 32.7817 39.6315C32.7817 40.1611 32.2611 40.6388 31.4263 40.977C30.9213 39.8207 29.7678 39.0124 28.4253 39.0124C27.0827 39.0124 25.9292 39.8207 25.4242 40.977C24.5894 40.6388 24.0688 40.1611 24.0688 39.6315C24.0688 38.6064 26.0193 37.7753 28.4253 37.7753Z" stroke="white" stroke-width="2" stroke-miterlimit="22.9256" stroke-linecap="round" stroke-linejoin="round"/>
<path d="M28.4249 45.5593C30.2328 45.5593 31.6984 44.0937 31.6984 42.2858C31.6984 40.4779 30.2328 39.0123 28.4249 39.0123C26.617 39.0123 25.1514 40.4779 25.1514 42.2858C25.1514 44.0937 26.617 45.5593 28.4249 45.5593Z" stroke="white" stroke-width="2" stroke-miterlimit="22.9256" stroke-linecap="round" stroke-linejoin="round"/>
<path d="M28.4252 43.9015C29.3174 43.9015 30.0408 43.1782 30.0408 42.2859C30.0408 41.3936 29.3174 40.6703 28.4252 40.6703C27.5329 40.6703 26.8096 41.3936 26.8096 42.2859C26.8096 43.1782 27.5329 43.9015 28.4252 43.9015Z" stroke="white" stroke-width="2" stroke-miterlimit="22.9256" stroke-linecap="round" stroke-linejoin="round"/>
</g>
</g>
<defs>
<clipPath id="clip0_43_96">
<rect width="57" height="57" fill="white"/>
</clipPath>
<clipPath id="clip1_43_96">
<rect width="33" height="37" fill="white" transform="translate(12 10)"/>
</clipPath>
</defs>
</svg>
