<svg width="76" height="76" viewBox="0 0 76 76" fill="none" xmlns="http://www.w3.org/2000/svg">
<g clip-path="url(#clip0_27_30)">
<path d="M66 0H10C4.47715 0 0 4.47715 0 10V66C0 71.5229 4.47715 76 10 76H66C71.5229 76 76 71.5229 76 66V10C76 4.47715 71.5229 0 66 0Z" fill="#F6B31F"/>
<g clip-path="url(#clip1_27_30)">
<path fill-rule="evenodd" clip-rule="evenodd" d="M32.3868 19C41.9892 19 49.7735 25.2161 49.7735 32.884C49.7735 40.5519 41.9892 46.7682 32.3868 46.7682C31.9839 46.7682 31.5842 46.7563 31.1882 46.7347C28.3255 48.9084 24.5248 50.2943 20.3138 50.5166C22.1698 48.7142 23.4681 47.7533 23.9984 45.0474C18.6339 42.6835 15 38.1228 15 32.884C15 25.2161 22.7843 19 32.3868 19ZM33.2307 50.0724C36.3184 52.5113 40.4205 53.9977 44.922 53.9977C45.3249 53.9977 45.7245 53.9848 46.1206 53.9613C48.9832 56.3266 52.7839 57.8345 56.9949 58.0764C55.139 56.1152 53.8406 55.0697 53.3104 52.1253C58.6749 49.5531 62.3087 44.5904 62.3087 38.89C62.3087 31.9041 56.8514 26.0267 49.4392 24.2985C51.894 26.9034 53.3676 30.2335 53.3676 33.8629C53.3676 42.2066 45.5833 48.9705 35.9808 48.9705C35.5779 48.9705 35.1783 48.9576 34.7823 48.9342C34.2917 49.3394 33.7736 49.7195 33.2307 50.0724Z" stroke="white" stroke-width="3" stroke-miterlimit="22.9256" stroke-linecap="round" stroke-linejoin="round"/>
</g>
</g>
<defs>
<clipPath id="clip0_27_30">
<rect width="76" height="76" fill="white"/>
</clipPath>
<clipPath id="clip1_27_30">
<rect width="51" height="43" fill="white" transform="translate(13 17)"/>
</clipPath>
</defs>
</svg>
