<svg width="76" height="76" viewBox="0 0 76 76" fill="none" xmlns="http://www.w3.org/2000/svg">
<path d="M66 0H10C4.47715 0 0 4.47715 0 10V66C0 71.5229 4.47715 76 10 76H66C71.5229 76 76 71.5229 76 66V10C76 4.47715 71.5229 0 66 0Z" fill="#F3ACC8"/>
<g clip-path="url(#clip0_92_49)">
<path d="M38.5 37.5C44.0228 37.5 48.5 33.0228 48.5 27.5C48.5 21.9772 44.0228 17.5 38.5 17.5C32.9772 17.5 28.5 21.9772 28.5 27.5C28.5 33.0228 32.9772 37.5 38.5 37.5Z" stroke="white" stroke-width="3" stroke-linecap="round" stroke-linejoin="round"/>
<path d="M58 58C58 47.5066 49.2696 39 38.5 39C27.7304 39 19 47.5066 19 58" stroke="white" stroke-width="3" stroke-linecap="round" stroke-linejoin="round"/>
<path d="M59.5 35.5C62.2614 35.5 64.5 33.2614 64.5 30.5C64.5 27.7386 62.2614 25.5 59.5 25.5C56.7386 25.5 54.5 27.7386 54.5 30.5C54.5 33.2614 56.7386 35.5 59.5 35.5Z" stroke="white" stroke-width="3" stroke-linecap="round" stroke-linejoin="round"/>
<path d="M70 47C70 41.4772 65.299 37 59.5 37C53.701 37 49 41.4772 49 47" stroke="white" stroke-width="3" stroke-linecap="round" stroke-linejoin="round"/>
<path d="M17.5 35.5C20.2614 35.5 22.5 33.2614 22.5 30.5C22.5 27.7386 20.2614 25.5 17.5 25.5C14.7386 25.5 12.5 27.7386 12.5 30.5C12.5 33.2614 14.7386 35.5 17.5 35.5Z" stroke="white" stroke-width="3" stroke-linecap="round" stroke-linejoin="round"/>
<path d="M28 47C28 41.4772 23.299 37 17.5 37C11.701 37 7 41.4772 7 47" stroke="white" stroke-width="3" stroke-linecap="round" stroke-linejoin="round"/>
</g>
<defs>
<clipPath id="clip0_92_49">
<rect width="67" height="44" fill="white" transform="translate(5 16)"/>
</clipPath>
</defs>
</svg>
