<svg width="76" height="76" viewBox="0 0 76 76" fill="none" xmlns="http://www.w3.org/2000/svg">
<path d="M66 0H10C4.47715 0 0 4.47715 0 10V66C0 71.5229 4.47715 76 10 76H66C71.5229 76 76 71.5229 76 66V10C76 4.47715 71.5229 0 66 0Z" fill="#F6B31F"/>
<path d="M44.2406 22.7828C46.5827 25.4376 50.6335 25.691 53.2883 23.3489C55.943 21.0068 56.1965 16.956 53.8543 14.3013C51.5122 11.6465 47.4614 11.3931 44.8067 13.7352C42.1519 16.0774 41.8985 20.1281 44.2406 22.7828Z" stroke="white" stroke-width="3" stroke-miterlimit="22.9256" stroke-linecap="round" stroke-linejoin="round"/>
<path fill-rule="evenodd" clip-rule="evenodd" d="M45.1447 28.7669L27.9939 41.503C27.9132 41.5911 27.8271 41.676 27.7355 41.7568C26.3407 42.9874 24.2122 42.8543 22.9816 41.4594C21.7509 40.0645 21.8842 37.9361 23.279 36.7055C23.4115 36.5886 23.5506 36.4841 23.6949 36.3918L38.3406 21.0966C38.4641 22.8762 39.1518 24.6308 40.4232 26.0718C41.7053 27.525 43.3779 28.4292 45.1447 28.7669Z" stroke="white" stroke-width="3" stroke-miterlimit="22.9256" stroke-linecap="round" stroke-linejoin="round"/>
<path d="M44.2159 60.8217C38.2298 66.1029 28.0457 66.4861 22.7645 60.5C17.4833 54.5138 16.7785 46.4777 22.7645 41.1965" stroke="white" stroke-width="3" stroke-miterlimit="22.9256" stroke-linecap="round" stroke-linejoin="round"/>
</svg>
