<svg width="76" height="76" viewBox="0 0 76 76" fill="none" xmlns="http://www.w3.org/2000/svg">
<path d="M66 0H10C4.47715 0 0 4.47715 0 10V66C0 71.5229 4.47715 76 10 76H66C71.5229 76 76 71.5229 76 66V10C76 4.47715 71.5229 0 66 0Z" fill="#F3ACC8"/>
<g clip-path="url(#clip0_92_33)">
<path d="M34.0808 35.0104L18.5284 46.9177C17.6843 47.564 17.547 48.8024 18.2218 49.6837L30.034 65.1119C30.7087 65.9932 31.94 66.1838 32.7841 65.5375L48.3366 53.6303C49.1807 52.984 49.3179 51.7456 48.6432 50.8643L36.831 35.4361C36.1562 34.5547 34.9249 34.3642 34.0808 35.0104Z" stroke="white" stroke-width="3" stroke-miterlimit="22.9256" stroke-linecap="round" stroke-linejoin="round"/>
<path d="M32.1557 48.4531L32.0086 48.5657C31.0753 49.2803 30.9235 50.6496 31.6696 51.6241C32.4157 52.5986 33.7772 52.8093 34.7105 52.0947L34.8576 51.9821C35.7909 51.2675 35.9427 49.8982 35.1966 48.9237C34.4505 47.9492 33.0891 47.7385 32.1557 48.4531Z" stroke="white" stroke-width="3" stroke-miterlimit="22.9256" stroke-linecap="round" stroke-linejoin="round"/>
<path d="M22.3721 50.3249L22.4847 50.4719C23.1993 51.4053 24.5686 51.5571 25.5431 50.811C26.5176 50.0649 26.7283 48.7034 26.0137 47.77L25.9011 47.6229C25.1865 46.6895 23.8172 46.5377 22.8427 47.2838C21.8682 48.03 21.6575 49.3915 22.3721 50.3249Z" stroke="white" stroke-width="3" stroke-miterlimit="22.9256" stroke-linecap="round" stroke-linejoin="round"/>
<path d="M40.8515 52.7779L40.9641 52.9249C41.6786 53.8583 43.0479 54.0101 44.0224 53.264C44.9969 52.5178 45.2076 51.1564 44.4931 50.223L44.3805 50.076C43.6659 49.1426 42.2966 48.9908 41.3221 49.7369C40.3476 50.483 40.1369 51.8445 40.8515 52.7779Z" stroke="white" stroke-width="3" stroke-miterlimit="22.9256" stroke-linecap="round" stroke-linejoin="round"/>
<path d="M36.5458 9.8267L30.3685 28.4144C30.0332 29.4232 30.6153 30.5248 31.6687 30.8749L50.1079 37.0028C51.1612 37.3529 52.2869 36.8189 52.6222 35.81L58.7995 17.2223C59.1348 16.2135 58.5527 15.1119 57.4993 14.7618L39.0601 8.63386C38.0068 8.2838 36.8811 8.81785 36.5458 9.8267Z" stroke="white" stroke-width="3" stroke-miterlimit="22.9256" stroke-linecap="round" stroke-linejoin="round"/>
<path d="M42.5044 22.0296L42.446 22.2054C42.0753 23.3209 42.719 24.5389 43.8837 24.926C45.0484 25.3131 46.2931 24.7226 46.6638 23.6071L46.7222 23.4313C47.0929 22.3158 46.4493 21.0977 45.2846 20.7107C44.1199 20.3236 42.8752 20.9141 42.5044 22.0296Z" stroke="white" stroke-width="3" stroke-miterlimit="22.9256" stroke-linecap="round" stroke-linejoin="round"/>
</g>
<defs>
<clipPath id="clip0_92_33">
<rect width="45" height="61" fill="white" transform="translate(16 7)"/>
</clipPath>
</defs>
</svg>
